<?xml version="1.0" encoding="utf-8"?>
<!-- Generator: Adobe Illustrator 25.3.0, SVG Export Plug-In . SVG Version: 6.00 Build 0)  -->
<svg version="1.1" id="Calque_1" xmlns="http://www.w3.org/2000/svg" xmlns:xlink="http://www.w3.org/1999/xlink" x="0px" y="0px"
	 viewBox="0 0 160 160" style="enable-background:new 0 0 160 160;" xml:space="preserve">
<style type="text/css">
	.st0{fill-rule:evenodd;clip-rule:evenodd;fill:#1E3B60;}
	.st1{fill:#F4F6F9;}
</style>
<circle class="st0" cx="81" cy="79.5" r="77"/>
<g>
	<path class="st1" d="M80.8,90.1c-0.7,0-1.5-0.1-2.2-0.3l-27.1-6.3c-5.4-1.2-8.7-6.6-7.5-12s6.6-8.7,12-7.5l14.8,3.4L70.3,28
		c-0.1-5.5,4.4-10,9.9-10.1c0,0,0.1,0,0.1,0c5.5,0,9.9,4.4,10,9.9L90.8,80c0,3.1-1.3,6-3.7,7.9C85.3,89.3,83.1,90.1,80.8,90.1z"/>
</g>
</svg>
