<?xml version="1.0" encoding="utf-8"?>
<!-- Generator: Adobe Illustrator 25.3.0, SVG Export Plug-In . SVG Version: 6.00 Build 0)  -->
<svg version="1.1" id="Calque_1" xmlns="http://www.w3.org/2000/svg" xmlns:xlink="http://www.w3.org/1999/xlink" x="0px" y="0px"
	 viewBox="0 0 160 160" style="enable-background:new 0 0 160 160;" xml:space="preserve">
<style type="text/css">
	.st0{fill-rule:evenodd;clip-rule:evenodd;fill:#1E3B60;}
	.st1{fill:#F4F6F9;}
	.st2{fill:none;stroke:#F4F6F9;stroke-width:20;stroke-linecap:round;stroke-linejoin:round;stroke-miterlimit:10;}
</style>
<circle class="st0" cx="81" cy="79.5" r="77"/>
<path class="st1" d="M92.2,34.9l10.3-6.2c3.5-2.1,4.7-6.8,2.5-10.3c-2.1-3.5-6.8-4.7-10.3-2.5L67.9,32.1c-3.5,2.1-4.7,6.8-2.5,10.3
	l16.2,26.8c1.4,2.3,3.9,3.6,6.4,3.6c1.3,0,2.7-0.4,3.9-1.1c3.5-2.1,4.7-6.8,2.5-10.3l-7.4-12.2c15.3,2.6,27,16,27,32
	c0,17.9-14.6,32.5-32.5,32.5c-9.1,0-17.9-3.9-24-10.6c-2.8-3.1-7.5-3.3-10.6-0.5c-3.1,2.8-3.3,7.5-0.5,10.6
	c9,9.8,21.8,15.5,35.1,15.5c26.2,0,47.5-21.3,47.5-47.5C129,58.7,113.2,39.8,92.2,34.9z"/>
<path class="st2" d="M-281.8-18.6"/>
</svg>
