<?xml version="1.0" encoding="utf-8"?>
<!-- Generator: Adobe Illustrator 25.3.0, SVG Export Plug-In . SVG Version: 6.00 Build 0)  -->
<svg version="1.1" id="Calque_1" xmlns="http://www.w3.org/2000/svg" xmlns:xlink="http://www.w3.org/1999/xlink" x="0px" y="0px"
	 viewBox="0 0 160 160" style="enable-background:new 0 0 160 160;" xml:space="preserve">
<style type="text/css">
	.st0{fill-rule:evenodd;clip-rule:evenodd;fill:#F20C0C;}
	.st1{fill:#FFFFFF;}
</style>
<circle class="st0" cx="81" cy="79.5" r="77"/>
<path class="st1" d="M96.9,81l27.7-27.7c3.9-3.9,3.9-10.2,0-14.1c-3.9-3.9-10.2-3.9-14.1,0L82.8,66.9L55.1,39.2
	c-3.9-3.9-10.2-3.9-14.1,0c-3.9,3.9-3.9,10.2,0,14.1L68.6,81l-27.7,27.7c-3.9,3.9-3.9,10.2,0,14.1c2,2,4.5,2.9,7.1,2.9
	s5.1-1,7.1-2.9l27.7-27.7l27.7,27.7c2,2,4.5,2.9,7.1,2.9s5.1-1,7.1-2.9c3.9-3.9,3.9-10.2,0-14.1L96.9,81z"/>
</svg>
